# xmcd
#
# Track frame offsets:
# 150
# 2742
# 20775
# 42341
# 61450
# 75968
# 89472
# 105938
# 112558
# 129153
# 142692
# 158807
# 172709
# 190643
# 192523
# 206539
#
# Disc length: 2788 seconds
#
#
# Revision: 0
# Processed by: cddbd v1.5.1PL2 Copyright (c) Steve Scherf et al.
# Submitted via: FreeRIP 2.945 
#
DISCID=b50ae210
DTITLE=Various Artist - Angeles Records Winter SAMPLER
DYEAR=1900
DGENRE=Hip-Hop
TTITLE0=infinite intro(chace)
TTITLE1=all in together
TTITLE2=pointed out the window (M Slick)
TTITLE3=kingo kong
TTITLE4=unprotected pieces(Gza Muggs)
TTITLE5=champions(MobbDeep)
TTITLE6=balance(Self Scientific)
TTITLE7=pimp selection(M Slick)
TTITLE8=descruction of a guard(Gza Ras Kass)
TTITLE9=change(Self Scientific)
TTITLE10=advance pawns(Gza Rza Raekwon)
TTITLE11=dont appreciate(M Slick)
TTITLE12=queens gambit(Gza Muggs)
TTITLE13=interview gza
TTITLE14=2 step(Self Scientific)
TTITLE15=outro(Muggs)
EXTD=
EXTT0=
EXTT1=
EXTT2=
EXTT3=
EXTT4=
EXTT5=
EXTT6=
EXTT7=
EXTT8=
EXTT9=
EXTT10=
EXTT11=
EXTT12=
EXTT13=
EXTT14=
EXTT15=
PLAYORDER=
